# xmcd
#
# Track frame offsets:
#	150
#	13229
#	29311
#	44600
#	58946
#	67328
#	84574
#	102281
#	114244
#	126513
#	146212
#	166049
#	178802
#	193715
#	210185
#
# Disc length: 2968 seconds
# Revision: 1
# Processed by: cddbd v1.5.2PL0 Copyright (c) Steve Scherf et al.
# Submitted via: dBpowerAMP V12.0
#
DISCID=df0b960f
DTITLE=Bonita and the Blues Shacks - Bonita and The Blues Shacks
DYEAR=2015
DGENRE=R&B
TTITLE0=Don't Call Me Babe
TTITLE1=Love Ain't Never Hurt Nobody
TTITLE2=Turn The Lamps Down Low
TTITLE3=You Keep Me Hanging On
TTITLE4=This Little Girl's Gone Rockin'
TTITLE5=Give Me Time
TTITLE6=Sure Cure For The Blues
TTITLE7=You're Driving Me Crazy
TTITLE8=I'll Be There
TTITLE9=Satisfy My Soul
TTITLE10=Bad News
TTITLE11=I'm A Fool For You
TTITLE12=Be Cool
TTITLE13=I'm Lonesome
TTITLE14=Never Let Me Go
EXTD=
EXTT0=
EXTT1=
EXTT2=
EXTT3=
EXTT4=
EXTT5=
EXTT6=
EXTT7=
EXTT8=
EXTT9=
EXTT10=
EXTT11=
EXTT12=
EXTT13=
EXTT14=
PLAYORDER=
